<svg xmlns="http://www.w3.org/2000/svg" width="57.447" height="44.163" viewBox="0 0 57.447 44.163"><defs><style>.a{fill:#b1b1b1;}</style></defs><g transform="translate(60.822 50.913) rotate(180)"><path class="a" d="M10.125,12.274V27.05H34.968L28.45,20.435A1.8,1.8,0,1,1,31,17.908l9.529,9.667a1.825,1.825,0,0,1,.511,1.257,1.713,1.713,0,0,1-.138.69,1.919,1.919,0,0,1-.373.566h0L31,39.755a1.8,1.8,0,0,1-2.555-2.527l6.518-6.615H10.125V45.389a5.54,5.54,0,0,0,5.524,5.524H48.791a5.54,5.54,0,0,0,5.524-5.524V12.274A5.54,5.54,0,0,0,48.791,6.75H15.649A5.54,5.54,0,0,0,10.125,12.274Z" transform="translate(6.507 0)"/><path class="a" d="M5.17,17.086a1.8,1.8,0,1,0,0,3.59H16.632v-3.59Z" transform="translate(0 9.964)"/></g></svg>