<svg xmlns="http://www.w3.org/2000/svg" xmlns:xlink="http://www.w3.org/1999/xlink" width="263.513" height="73.457" viewBox="0 0 263.513 73.457"><defs><style>.a{fill:url(#a);}.b,.c{fill:none;stroke:#4b03c8;stroke-width:2.3px;}.b{stroke-miterlimit:10;}.c{stroke-linejoin:bevel;}.d{font-size:9px;font-family:Skia-Regular, Skia;letter-spacing:0.2em;}</style><linearGradient id="a" x1="0.5" x2="0.5" y2="1" gradientUnits="objectBoundingBox"><stop offset="0" stop-color="#4303d4"/><stop offset="1" stop-color="#5c03ac"/></linearGradient></defs><g transform="translate(-248.351 -465.211)"><g transform="translate(69.086 -27.065) rotate(7)"><path class="a" d="M282.224,492.955,273,491.111l6.852-34.522,10.8-6.588" transform="translate(-20.784 15.004)"/><path class="a" d="M312.289,493.457l9.259,1.657,6.253-34.636-7.646-10.084" transform="translate(-49.719 14.714)"/><rect class="a" width="34.823" height="5.492" transform="translate(244.336 505.547) rotate(10.373)"/><rect class="a" width="12.007" height="4.273" transform="translate(250.397 529.792) rotate(10.373)"/><rect class="a" width="2.264" height="4.56" transform="translate(252.857 537.563) rotate(-79.627)"/><path class="a" d="M283.906,652.976,276,651.658l.63-3.969,2.423.425.163-.932-2.423-.424q.147-.839.294-1.677l2.423.424.163-.932-2.423-.425.294-1.677,2.423.425.163-.932-2.423-.425.294-1.677,2.423.425.163-.932-2.423-.425.425-2.423,7.952,1.448Z" transform="translate(-22.994 -122.353)"/></g><path class="b" d="M441.439,537.409l6.707-4.36c-2.228-4.878-6.7-8.058-11.4-8.049a12.2,12.2,0,0,0-7.881,3.186c-1.042.982-3.238,3.049-3.186,5.869.064,3.517,3.582,5.892,5.534,7.211,2.352,1.588,3.063,1.278,7.546,3.186,5.249,2.235,7.9,3.333,9.39,5.7a10.442,10.442,0,0,1,.671,9.726c-2.437,5.171-8.76,5.831-10.732,6.037-1.531.16-6.388.667-10.4-2.683A12.478,12.478,0,0,1,424,557.866" transform="translate(-122.726 -49.847)"/><path class="c" d="M516.5,568.732,529.579,530.5l15.427,38.232L525.89,568.4" transform="translate(-184.204 -53.503)"/><path class="c" d="M942.5,568.732,955.579,530.5l15.427,38.232L951.89,568.4" transform="translate(-467.336 -53.503)"/><path class="c" d="M623.5,566.409q.336-19.619.671-39.238l14.086,28.842L652.677,526.5q-.336,19.452-.671,38.9H632.22" transform="translate(-255.319 -50.844)"/><path class="b" d="M743.5,524.5q.336,14.589.671,29.177a12.621,12.621,0,0,0,25.153,1.677q.167-15.427.335-30.854l-14.756.335" transform="translate(-335.075 -49.515)"/><path class="b" d="M858.5,565.745V525.5h13.415a9.765,9.765,0,0,1,1.341,19.451l7.714,19.787H863.2" transform="translate(-411.507 -50.18)"/><path class="b" d="M1048.5,524.5v40.917" transform="translate(-537.787 -49.515)"/><text class="d" transform="translate(305.265 531.977)"><tspan x="0" y="0">THE WINNING EDGE FOR YOUR IT</tspan></text></g></svg>