<svg xmlns="http://www.w3.org/2000/svg" width="429.101" height="441.031" viewBox="0 0 429.101 441.031"><defs><style>.a{fill:#fff;}.b,.c{fill:none;stroke:#fff;stroke-width:4px;}.b{stroke-miterlimit:10;}.c{stroke-linejoin:bevel;}.d{fill:#e4e4e4;font-size:17px;font-family:Skia-Regular, Skia;letter-spacing:0.2em;}</style></defs><g transform="translate(-351.054 -221.761)"><g transform="matrix(0.995, 0.105, -0.105, 0.995, 544.353, 218.652)"><path class="a" d="M30.936,144.075,0,137.888Q11.491,79.992,22.981,22.1L59.221,0" transform="translate(29.745 0)"/><path class="a" d="M0,144.436l31.055,5.559L52.027,33.823,26.383,0" transform="translate(64.473 0.348)"/><rect class="a" width="116.797" height="18.422" transform="translate(3.317 135.985) rotate(10.373)"/><rect class="a" width="40.274" height="14.331" transform="translate(23.647 217.304) rotate(10.373)"/><rect class="a" width="7.592" height="15.295" transform="translate(31.895 243.366) rotate(-79.627)"/><path class="a" d="M26.517,55.238,0,50.818Q1.057,44.161,2.112,37.5l8.126,1.424.548-3.125L2.66,34.379q.492-2.813.985-5.626l8.126,1.424.548-3.125L4.194,25.628Q4.686,22.816,5.18,20l8.126,1.425q.274-1.563.548-3.126L5.727,16.877l.986-5.626,8.126,1.424.548-3.125L7.26,8.126,8.685,0,35.356,4.855Q30.937,30.047,26.517,55.238Z" transform="translate(32.397 164.853)"/></g><path class="b" d="M459.407,550.193l13.618-8.852c-4.522-9.9-13.6-16.359-23.15-16.341-8.967.016-15.225,5.738-16,6.469-2.116,1.993-6.573,6.19-6.468,11.916.131,7.141,7.272,11.963,11.235,14.639,4.776,3.225,6.219,2.594,15.32,6.468,10.657,4.537,16.044,6.767,19.065,11.575a21.2,21.2,0,0,1,1.362,19.746c-4.948,10.5-17.785,11.838-21.789,12.256-3.108.324-12.97,1.354-21.108-5.447A25.333,25.333,0,0,1,424,591.728" transform="translate(-71.064 -21.364)"/><path class="c" d="M516.5,608.122,543.055,530.5l31.321,77.622-38.811-.681" transform="translate(-100.581 -23.119)"/><path class="c" d="M942.5,608.122,969.055,530.5l31.321,77.622-38.811-.681" transform="translate(-236.52 -23.119)"/><path class="c" d="M623.5,607.526q.681-39.832,1.362-79.665l28.6,58.557L682.738,526.5q-.681,39.492-1.362,78.984H641.2" transform="translate(-134.725 -21.843)"/><path class="b" d="M743.5,524.5q.681,29.619,1.362,59.238a25.625,25.625,0,0,0,51.067,3.4q.34-31.322.681-62.642l-29.959.681" transform="translate(-173.018 -21.204)"/><path class="b" d="M858.5,607.208V525.5h27.236c9.944.278,18.178,7.363,19.746,16.341,1.806,10.341-5.6,21.1-17.022,23.151l15.661,40.173H868.033" transform="translate(-209.715 -21.524)"/><path class="b" d="M1048.5,524.5v83.072" transform="translate(-270.345 -21.204)"/><text class="d" transform="translate(379.039 658.793)"><tspan x="0" y="0">THE WINNING EDGE FOR YOUR IT</tspan></text><rect class="a" width="398" height="8" transform="translate(366.348 616.572)"/></g></svg>